<svg version="1.1" xmlns="http://www.w3.org/2000/svg" width="60px"
     height="60px" viewBox="0,0,255.99538,255.99538">
    <g fill="none" fill-rule="nonzero" stroke="none" stroke-width="1" stroke-linecap="butt" stroke-linejoin="miter"
       stroke-miterlimit="10" stroke-dasharray="" stroke-dashoffset="0" font-family="none" font-weight="none"
       font-size="none" text-anchor="none" style="mix-blend-mode: normal">
        <g transform="scale(4.26667,4.26667)">
            <path d="M43,28c-0.00012,0.80176 -0.04352,1.60292 -0.13,2.4l-14.87,15.6h-3l-1,-1h-2c-1.1032,-0.00329 -1.99671,-0.8968 -2,-2c0.02787,-1.09282 0.90718,-1.97213 2,-2h-2c-1.09303,-0.02736 -1.97264,-0.90697 -2,-2c0.00329,-1.1032 0.8968,-1.99671 2,-2h-2c-1.1032,-0.00329 -1.99671,-0.8968 -2,-2c0.01767,-1.09717 0.90283,-1.98233 2,-2h2.66l3.34,-18.32v-6.68h15v8.14c0.00347,0.51276 0.19982,1.00542 0.55,1.38c1.1,1.16 3.45,4.35 3.45,10.48z"
                  fill="#ebc0a6"></path>
            <path d="M27.32,22.68c-0.53184,0.0043 -1.04325,-0.20459 -1.42,-0.58l-4.24,-4.24c-0.78148,-0.78148 -0.78148,-2.04852 0,-2.83c0.78148,-0.78148 2.04852,-0.78148 2.83,0l4.24,4.24c0.37555,0.37514 0.58657,0.88418 0.58657,1.415c0,0.53082 -0.21102,1.03986 -0.58657,1.415c-0.37393,0.37351 -0.88149,0.58229 -1.41,0.58z"
                  fill="#926153"></path>
            <path d="M26.6,27.623c-0.52715,0.00229 -1.03388,-0.20364 -1.41,-0.573l-5.65,-5.66c-0.71741,-0.78891 -0.68972,-2.00193 0.06296,-2.75728c0.75268,-0.75535 1.96559,-0.78734 2.75704,-0.07272l5.66,5.66c0.57499,0.56978 0.74708,1.4313 0.43512,2.17826c-0.31196,0.74696 -1.04568,1.23017 -1.85512,1.22174z"
                  fill="#926153"></path>
            <path d="M24.661,31.332c-0.52726,0.0049 -1.03472,-0.2006 -1.41,-0.571l-5.841,-5.831c-0.78148,-0.78148 -0.78148,-2.04852 0,-2.83c0.78148,-0.78148 2.04852,-0.78148 2.83,0l5.831,5.831c0.57574,0.56777 0.74976,1.42792 0.44001,2.17484c-0.30975,0.74692 -1.04143,1.23147 -1.85001,1.22516z"
                  fill="#926153"></path>
            <path d="M20.658,32.984c-0.53109,0.00494 -1.04234,-0.20158 -1.421,-0.574l-3.52,-3.523c-0.71741,-0.78891 -0.68972,-2.00193 0.06296,-2.75728c0.75268,-0.75535 1.96559,-0.78734 2.75704,-0.07272l3.531,3.533c0.57347,0.56764 0.74604,1.42606 0.43647,2.17121c-0.30957,0.74516 -1.03959,1.2286 -1.84647,1.22279z"
                  fill="#926153"></path>
            <path d="M44,35.01c0,1.3 -0.33,1.59 -0.97,2.73l-3.65,6.58c-0.24896,0.44635 -0.37977,0.94891 -0.38,1.46v6.22h-15v-7h2.15c0.5429,0.00054 1.06269,-0.21965 1.44,-0.61l10.75,-11.06l-5.05,-5.14c-0.73441,-0.72124 -0.93472,-1.82696 -0.5,-2.76c0.30282,-0.60881 0.85618,-1.05522 1.51528,-1.2224c0.6591,-0.16718 1.35833,-0.03849 1.91472,0.3524l4.5,3.14c0.92933,0.70793 1.66815,1.63574 2.15,2.7c0.71795,1.43236 1.10417,3.00799 1.13,4.61z"
                  fill="#926153"></path>
            <path d="M49.04,8.131l2.56,-2.539c0.37324,-0.37872 0.88277,-0.59195 1.4145,-0.59195c0.53173,0 1.04126,0.21323 1.4145,0.59195c0.76405,0.78435 0.76405,2.03465 0,2.819l-2.55,2.549z"
                  fill="#a3bdce"></path>
            <path d="M30,1c-16.01626,0 -29,12.98374 -29,29c0,16.01626 12.98374,29 29,29c16.01626,0 29,-12.98374 29,-29c0,-16.01626 -12.98374,-29 -29,-29zM30,51c-11.59798,0 -21,-9.40202 -21,-21c0,-11.59798 9.40202,-21 21,-21c11.59798,0 21,9.40202 21,21c-0.01268,11.59273 -9.40727,20.98732 -21,21z"
                  fill="#cd596b"></path>
            <path d="M8.131,10.96l-2.539,-2.56c-0.37872,-0.37324 -0.59195,-0.88277 -0.59195,-1.4145c0,-0.53173 0.21323,-1.04126 0.59195,-1.4145c0.78435,-0.76405 2.03465,-0.76405 2.819,0l2.549,2.55z"
                  fill="#a3bdce"></path>
            <path d="M10.96,51.869l-2.56,2.539c-0.37324,0.37872 -0.88277,0.59195 -1.4145,0.59195c-0.53173,0 -1.04126,-0.21323 -1.4145,-0.59195c-0.76405,-0.78435 -0.76405,-2.03465 0,-2.819l2.55,-2.549z"
                  fill="#a3bdce"></path>
            <path d="M51.869,49.04l2.539,2.56c0.37872,0.37324 0.59195,0.88277 0.59195,1.4145c0,0.53173 -0.21323,1.04126 -0.59195,1.4145c-0.78435,0.76405 -2.03465,0.76405 -2.819,0l-2.549,-2.55z"
                  fill="#a3bdce"></path>
            <path d="M18.25,47.4l-5.73,5.74c-2.14236,-1.61236 -4.04764,-3.51764 -5.66,-5.66l5.74,-5.73c1.5116,2.22161 3.42839,4.1384 5.65,5.65z"
                  fill="#e4f1ff"></path>
            <path d="M18.25,12.6c-2.22161,1.5116 -4.1384,3.42839 -5.65,5.65l-5.74,-5.73c1.61236,-2.14236 3.51764,-4.04764 5.66,-5.66z"
                  fill="#e4f1ff"></path>
            <path d="M53.14,12.52l-5.74,5.73c-1.5116,-2.22161 -3.42839,-4.1384 -5.65,-5.65l5.73,-5.74c2.14236,1.61236 4.04764,3.51764 5.66,5.66z"
                  fill="#e4f1ff"></path>
            <path d="M53.14,47.48c-1.61236,2.14236 -3.51764,4.04764 -5.66,5.66l-5.73,-5.74c2.22161,-1.5116 4.1384,-3.42839 5.65,-5.65z"
                  fill="#e4f1ff"></path>
            <path d="M55.133,9.119c1.07851,-1.185 1.03543,-3.00837 -0.09785,-4.14111c-1.13327,-1.13274 -2.95666,-1.17496 -4.14115,-0.09589l-1.917,1.9c-11.02756,-9.04806 -26.91044,-9.04806 -37.938,0l-1.92,-1.92c-1.18205,-1.10743 -3.02975,-1.07656 -4.17416,0.06973c-1.1444,1.14629 -1.17222,2.99404 -0.06284,4.17427l1.906,1.92c-1.64781,1.99903 -3.0281,4.20426 -4.106,6.56c-0.21392,0.49967 0.01045,1.07871 0.50519,1.30379c0.49474,0.22508 1.07868,0.01377 1.31481,-0.47579c0.70009,-1.52157 1.53615,-2.97681 2.498,-4.348l4.327,4.328c-4.42929,7.10344 -4.42929,16.10856 0,23.212l-4.327,4.328c-4.78858,-6.89936 -6.22817,-15.58353 -3.922,-23.659c0.1104,-0.3471 0.02334,-0.72678 -0.22726,-0.99111c-0.2506,-0.26433 -0.6251,-0.37149 -0.97759,-0.27975c-0.35249,0.09175 -0.62722,0.36789 -0.71715,0.72085c-2.70304,9.45394 -0.60265,19.63235 5.622,27.244l-1.911,1.912c-1.07851,1.185 -1.03543,3.00837 0.09785,4.14111c1.13327,1.13274 2.95666,1.17496 4.14115,0.09589l1.917,-1.9c11.03111,9.04391 26.91156,9.04684 37.946,0.007l1.912,1.911c1.1864,1.12396 3.0446,1.12396 4.231,0c1.15665,-1.1769 1.15932,-3.06283 0.006,-4.243l-1.9,-1.917c9.04391,-11.03111 9.04684,-26.91156 0.007,-37.946zM52.308,6.3c0.3898,-0.3864 1.0182,-0.3864 1.408,0c0.37448,0.39502 0.37448,1.01398 0,1.409l-1.816,1.817c-0.45733,-0.488 -0.92967,-0.96033 -1.417,-1.417zM47.551,51.8l-4.27,-4.27c1.60028,-1.21529 3.02771,-2.64272 4.243,-4.243l4.27,4.27c-1.25963,1.55921 -2.68201,2.97958 -4.243,4.237zM40,47.294v-1.514c0.00055,-0.34097 0.08797,-0.67618 0.254,-0.974c1.309,-2.359 2.561,-4.761 3.94,-7.079c0.55553,-0.79462 0.83835,-1.74799 0.806,-2.717c-0.03087,-1.53163 -0.35364,-3.04332 -0.951,-4.454c-0.045,-0.1 -0.11,-0.226 -0.161,-0.336c0.07,-0.739 0.112,-1.483 0.112,-2.22c0,-6.537 -2.6,-9.988 -3.715,-11.157c-0.17884,-0.18971 -0.28047,-0.43932 -0.285,-0.7v-3.437c6.18682,3.56093 10.00012,10.15559 10.00012,17.294c0,7.13841 -3.81331,13.73307 -10.00012,17.294zM21.309,42.294c0.18339,-0.18405 0.43122,-0.28949 0.691,-0.294h3.17c0.79857,0.00203 1.56466,-0.316 2.127,-0.883l2.41,-2.41c0.37897,-0.39238 0.37355,-1.01608 -0.01218,-1.40182c-0.38573,-0.38573 -1.00944,-0.39115 -1.40182,-0.01218l-2.41,2.41c-0.1878,0.1916 -0.44471,0.29969 -0.713,0.3h-5.17c-0.55228,0 -1,-0.44772 -1,-1c0,-0.55228 0.44772,-1 1,-1h3.172c0.98513,-0.07028 1.89973,-0.53678 2.535,-1.293c0.37897,-0.39238 0.37355,-1.01608 -0.01218,-1.40182c-0.38573,-0.38573 -1.00944,-0.39115 -1.40182,-0.01218c-0.309,0.309 -0.624,0.707 -1.121,0.707h-5.172c-0.55228,0 -1,-0.44772 -1,-1c0.03285,-0.53809 0.46191,-0.96715 1,-1h2.66c1.23576,-0.00346 2.34225,-0.76628 2.785,-1.92c1.06892,0.49371 2.32861,0.30886 3.21064,-0.47111c0.88203,-0.77998 1.21959,-2.0076 0.86036,-3.12889c1.00138,-0.30994 1.76639,-1.12306 2.01474,-2.14146c0.24835,-1.01841 -0.05645,-2.09241 -0.80274,-2.82854l-0.128,-0.128c0.88757,-0.40904 1.51743,-1.22817 1.68476,-2.19103c0.16733,-0.96286 -0.14923,-1.94646 -0.84676,-2.63097l-4.245,-4.245c-0.06,-0.059 -0.129,-0.1 -0.193,-0.156v-3.5c4.32356,-1.1475 8.90914,-0.78665 13,1.023v4.455c0.00401,0.76859 0.29834,1.50726 0.824,2.068c0.926,0.975 3.036,3.806 3.164,9.279c-0.21768,-0.21971 -0.45168,-0.42262 -0.7,-0.607l-4.5,-3.14c-0.79465,-0.55598 -1.79195,-0.7385 -2.732,-0.5c-1.16259,0.3186 -2.06708,1.23292 -2.37311,2.39888c-0.30603,1.16596 0.03285,2.40663 0.88911,3.25512l4.365,4.441l-10.064,10.357c-0.18776,0.19862 -0.44968,0.3102 -0.723,0.308h-4.15c-0.40723,0.00372 -0.77528,-0.24208 -0.92786,-0.61967c-0.15258,-0.37759 -0.05863,-0.81008 0.23686,-1.09033zM22.367,17.157c-0.38413,-0.39384 -0.38413,-1.02216 0,-1.416c0.956,-0.956 2.139,0.723 2.753,1.337l2.9,2.9c0.18808,0.18761 0.29379,0.44235 0.29379,0.708c0,0.26565 -0.1057,0.52039 -0.29379,0.708c-0.39465,0.38022 -1.01935,0.38022 -1.414,0zM20.95,18.988c0.26083,-0.0041 0.51261,0.09553 0.7,0.277l5.661,5.662c0.18808,0.18761 0.29379,0.44235 0.29379,0.708c0,0.26565 -0.1057,0.52039 -0.29379,0.708c-0.39478,0.38086 -1.02022,0.38086 -1.415,0l-5.656,-5.666c-0.28627,-0.28344 -0.37178,-0.71229 -0.21612,-1.08384c0.15566,-0.37156 0.52131,-0.6114 0.92412,-0.60616zM18.829,22.526c0.26107,-0.0013 0.51229,0.09955 0.7,0.281l5.831,5.833c0.38191,0.39436 0.38191,1.02064 0,1.415c-0.39521,0.37109 -1.01079,0.37109 -1.406,0l-5.84,-5.831c-0.2932,-0.28324 -0.38257,-0.71736 -0.22509,-1.09337c0.15748,-0.37602 0.52955,-0.61688 0.93709,-0.60663zM16.424,26.765c0.39461,-0.37259 1.01139,-0.37259 1.406,0l3.53,3.535c0.38508,0.38957 0.38508,1.01643 0,1.406c-0.39427,0.38308 -1.02173,0.38308 -1.416,0l-3.525,-3.528c-0.38834,-0.39176 -0.3861,-1.024 0.005,-1.413zM26.15,46c0.81334,0.00213 1.59235,-0.3276 2.157,-0.913l10.74,-11.05c0.7,-0.7 0.7,-0.7 -2.519,-3.978l-2.561,-2.605c-0.34723,-0.33899 -0.48685,-0.8377 -0.3661,-1.3077c0.12075,-0.47001 0.48346,-0.83966 0.9511,-0.9693c0.37653,-0.10087 0.77844,-0.02746 1.095,0.2l4.5,3.138c0.92596,0.73923 1.63808,1.71197 2.063,2.818c0.681,1.628 1.2,3.783 0.264,5.374c-1.38,2.339 -2.648,4.749 -3.965,7.124c-0.33261,0.59582 -0.5078,1.26662 -0.509,1.949v2.539c-4.09086,1.80965 -8.67644,2.1705 -13,1.023v-3.342zM43.285,12.479l4.266,-4.273c1.5613,1.2593 2.9837,2.6817 4.243,4.243l-4.273,4.266c-1.21348,-1.59747 -2.63853,-3.02252 -4.236,-4.236zM45.933,6.994l-4.324,4.33c-7.1041,-4.43077 -16.1109,-4.43077 -23.215,0l-4.319,-4.324c9.57175,-6.66742 22.28248,-6.67101 31.858,-0.009zM6.3,7.692c-0.32186,-0.39646 -0.2933,-0.97174 0.06625,-1.33437c0.35955,-0.36263 0.93456,-0.3961 1.33375,-0.07763l1.829,1.825c-0.486,0.45533 -0.959,0.927 -1.419,1.415zM8.21,12.45c1.26042,-1.56081 2.68493,-2.98163 4.249,-4.238l4.264,4.264c-1.60028,1.21529 -3.02771,2.64272 -4.243,4.243zM23,11.289v2.167c-1.62826,0.02897 -2.93127,1.3605 -2.925,2.989c0.00177,0.22048 0.02759,0.44012 0.077,0.655c-0.49778,0.13175 -0.95248,0.39133 -1.319,0.753c-0.57033,0.56404 -0.88966,1.33388 -0.886,2.136c0.00277,0.21993 0.02959,0.4389 0.08,0.653c-0.8301,0.22493 -1.52267,0.7973 -1.89991,1.57019c-0.37724,0.77288 -0.40243,1.67101 -0.06909,2.46381c-0.95207,0.35878 -1.65604,1.1775 -1.86809,2.17258c-0.21205,0.99508 0.097,2.02967 0.82009,2.74542l2.461,2.463c-1.40728,0.28794 -2.43093,1.50712 -2.471,2.943c-0.00081,1.35449 0.90465,2.54211 2.211,2.9c-0.315,0.7929 -0.27579,1.68268 0.10775,2.44479c0.38354,0.76211 1.07477,1.32376 1.89925,1.54321c-0.36855,0.92347 -0.25562,1.96955 0.30155,2.79308c0.55716,0.82353 1.48616,1.3175 2.48045,1.31892h1v2.711c-7.81642,-2.90925 -13.00083,-10.37072 -13.00083,-18.711c0,-8.34028 5.1844,-15.80175 13.00083,-18.711zM12.476,43.281c1.21529,1.60028 2.64272,3.02771 4.243,4.243l-4.27,4.27c-1.5613,-1.2593 -2.9837,-2.6817 -4.243,-4.243zM7.692,53.7c-0.39646,0.32186 -0.97174,0.2933 -1.33437,-0.06625c-0.36263,-0.35955 -0.3961,-0.93456 -0.07763,-1.33375l1.82,-1.826c0.45667,0.488 0.929,0.96033 1.417,1.417zM14.066,53l4.328,-4.327c7.10344,4.42929 16.10856,4.42929 23.212,0l4.328,4.327c-9.57876,6.66004 -22.28924,6.66004 -31.868,0zM53.704,52.3c0.3864,0.3898 0.3864,1.0182 0,1.408c-0.39522,0.37398 -1.01378,0.37398 -1.409,0l-1.821,-1.808c0.488,-0.45733 0.96033,-0.92967 1.417,-1.417zM53.004,45.926l-4.327,-4.328c4.43077,-7.1041 4.43077,-16.1109 0,-23.215l4.33,-4.324c6.65929,9.57863 6.65929,22.28837 0,31.867z"
                  fill="#373737"></path>
        </g>
    </g>
</svg>