<svg xmlns:xlink="http://www.w3.org/1999/xlink" version="1.1" xmlns="http://www.w3.org/2000/svg" width="48px"
     height="48px" viewBox="0,0,255.99538,255.99538">
    <g fill="none" fill-rule="nonzero" stroke="none" stroke-width="1" stroke-linecap="butt" stroke-linejoin="miter"
       stroke-miterlimit="10" stroke-dasharray="" stroke-dashoffset="0" font-family="none" font-weight="none"
       font-size="none" text-anchor="none" style="mix-blend-mode: normal">
        <g transform="scale(5.33333,5.33333)">
            <path d="M32.05,20.99v22c0,0.55 -0.44,1 -1,1h-13.87c-4.16,0 -7.91,-2.3 -9.8,-6l-2.02,-3.96c-0.95,-1.86 -1.02,-4.03 -0.19,-5.96l0.62,-1.45c1.06,-2.44 2.55,-4.63 4.43,-6.51l6.27,-6.27c0.14,-0.14 0.31,-0.23 0.49,-0.26c-0.87,1.26 -1.45,2.71 -1.67,4.24l-1.26,8.54c-0.06,0.44 0.16,0.87 0.56,1.05c1.81,0.81 3.97,0.21 5.11,-1.41c1.02,-1.43 2.16,-3.5 3.13,-5.99l8.2,-0.02c0.27,0 0.52,0.1 0.71,0.29c0.19,0.19 0.29,0.44 0.29,0.71z"
                  fill="#f97316"></path>
            <path d="M38.298,19.989h-10.243c-0.553,0 -1,0.447 -1,1v4c0,0.553 0.447,1 1,1h10.243c1.654,0 3,-1.346 3,-3c0,-1.654 -1.346,-3 -3,-3z"
                  fill="#f97316"></path>
            <path d="M36.884,25.989h-14.829c-0.553,0 -1,0.447 -1,1v4c0,0.553 0.447,1 1,1h14.829c1.654,0 3,-1.346 3,-3c0,-1.654 -1.346,-3 -3,-3z"
                  fill="#f97316"></path>
            <path d="M35.47,31.989h-17.415c-0.553,0 -1,0.447 -1,1v4c0,0.553 0.447,1 1,1h17.415c1.654,0 3,-1.346 3,-3c0,-1.654 -1.346,-3 -3,-3z"
                  fill="#f97316"></path>
            <path d="M33.055,37.989h-14c-0.553,0 -1,0.447 -1,1v4c0,0.553 0.447,1 1,1h14c1.654,0 3,-1.346 3,-3c0,-1.654 -1.346,-3 -3,-3z"
                  fill="#f97316"></path>
            <path d="M36.884,27.989h-5.829c-0.553,0 -1,-0.447 -1,-1c0,-0.553 0.447,-1 1,-1h5.829c0.553,0 1,0.447 1,1c0,0.553 -0.447,1 -1,1z"
                  fill="#324561"></path>
            <path d="M33.055,39.989h-2c-0.553,0 -1,-0.447 -1,-1c0,-0.553 0.447,-1 1,-1h2c0.553,0 1,0.447 1,1c0,0.553 -0.448,1 -1,1z"
                  fill="#324561"></path>
            <path d="M35.47,33.989h-4.415c-0.553,0 -1,-0.447 -1,-1c0,-0.553 0.447,-1 1,-1h4.415c0.553,0 1,0.447 1,1c0,0.553 -0.448,1 -1,1z"
                  fill="#324561"></path>
            <path d="M16.295,28.771c-0.703,0 -1.414,-0.144 -2.088,-0.442c-0.813,-0.375 -1.277,-1.246 -1.141,-2.124l1.251,-8.528c0.34,-2.324 1.443,-4.521 3.105,-6.183l3.071,-3.071c1.154,-1.154 2.444,-2.174 3.834,-3.03l2.786,-1.717c1.917,-1.181 4.302,-1.367 6.38,-0.494l4.848,2.034c2.337,0.979 3.812,3.339 3.669,5.87l-0.544,9.649c-0.03,0.552 -0.519,0.975 -1.055,0.941c-0.551,-0.03 -0.973,-0.503 -0.941,-1.055l0.544,-9.649c0.095,-1.688 -0.888,-3.26 -2.446,-3.913l-4.848,-2.034c-1.482,-0.621 -3.188,-0.49 -4.558,0.354l-2.786,1.717c-1.257,0.774 -2.424,1.696 -3.469,2.741l-3.071,3.071c-1.36,1.36 -2.263,3.157 -2.541,5.059l-1.252,8.537c1.352,0.607 2.985,0.157 3.855,-1.082c1.177,-1.659 1.953,-3.313 2.682,-5.713c0.16,-0.527 0.712,-0.827 1.248,-0.666c0.528,0.161 0.826,0.72 0.666,1.248c-0.785,2.585 -1.671,4.465 -2.962,6.284c-0.99,1.411 -2.593,2.196 -4.237,2.196z"
                  fill="#324561"></path>
        </g>
    </g>
</svg>